<svg t="1679841560048" class="icon" viewBox="0 0 1024 1024" version="1.1" xmlns="http://www.w3.org/2000/svg" p-id="2116" width="200" height="200"><path d="M834.076533 575.04046a136.642751 136.642751 0 0 0-136.365697 136.365698 132.985646 132.985646 0 0 0 18.895044 68.820071L583.731055 871.376807l-106.610159-155.870259-164.902201 112.539103a136.033233 136.033233 0 0 0-122.734669-77.187085c-3.158409 0-6.316818 0-9.253584 0.443285a386.212479 386.212479 0 0 1 321.880673-170.387858 297.167507 297.167507 0 0 0 41.336372 2.936766 291.903492 291.903492 0 1 0-162.40872-49.537153 449.491483 449.491483 0 0 0-299.217703 269.628397 135.035841 135.035841 0 0 0-28.758146 83.503903 136.310287 136.310287 0 0 0 272.34352 8.200782l135.312895-92.535846 106.388517 155.648617 193.9374-132.376129a136.365698 136.365698 0 1 0 73.252926-251.34287zM314.545944 292.002677a228.790721 228.790721 0 1 1 228.6799 228.6799 228.956953 228.956953 0 0 1-228.6799-228.73531zM189.262384 960.698833a73.419159 73.419159 0 1 1 73.419158-73.419159 73.52998 73.52998 0 0 1-73.419158 73.419159z m644.758739-175.818106a73.419159 73.419159 0 1 1 73.419158-73.419159 73.52998 73.52998 0 0 1-73.363748 73.363748z"  p-id="2117"></path></svg>
