<svg t="1678597811457" class="icon" viewBox="0 0 1024 1024" version="1.1" xmlns="http://www.w3.org/2000/svg" p-id="28572" width="200" height="200"><path d="M770.4 278c40.2 38.2 43 38 5.6 11s-93.4-30.4-132 39.2c22.6-141.2-135.2-90.6-135.2-90.6 37.2-78-49.6-127.8-49.6-127.8S545.8 150 590 87.2c6 135.4 133.6 68.6 145.6 54.6-34.6 59.8-5.4 98.2 34.8 136.2z m-42.4-19.4c-0.2-0.2-6.8-2.8-17.8-7.6l-174.8-90.4c-5.4-3.2-10.6-6.6-16-10-0.6-0.4-1.6-0.2-2 0.4-0.4 0.6-0.2 1.6 0.4 2 102.8 64.8 208 107.8 209 108.2 0.8 0.2 1.6 0 1.8-0.8 0.4-0.6 0.2-1.4-0.6-1.8z" fill="#FB8A5D" p-id="28573"></path><path d="M484.2 174h48.6c11 0 20 9 20 20v31c0 11-9 20-20 20h-48.6c-11 0-20-9-20-20V194c0-11 9-20 20-20z" fill="#8CD5CA" p-id="28574"></path><path d="M532.8 174H512v71h20.8c11 0 20-9 20-20V194c0-11-9-20-20-20z" fill="#71C6B8" p-id="28575"></path><path d="M509.8 752c56 0 101.2 34 101.2 76s-45.4 76-101.2 76-101.2-34-101.2-76 45.2-76 101.2-76z" fill="#8CD5CA" p-id="28576"></path><path d="M512 752v152c54.8-0.8 99-34.6 99-76s-44-75-99-76z" fill="#71C6B8" p-id="28577"></path><path d="M140 812.8h742s-15.4-6.6-50.4-61.4H192.6S161.8 812.8 140 812.8z" fill="#FAD996" p-id="28578"></path><path d="M512 751.4v61.4h370s-15.4-6.6-50.4-61.4H512z" fill="#F7C872" p-id="28579"></path><path d="M210 725l608.4-2.2s-36-79-48.2-193c-15.4-144.8-63.4-320.2-258.2-320.2s-238.6 127.2-253.8 320.2c-19.8 144.8-48.2 195.2-48.2 195.2z" fill="#FAD996" p-id="28580"></path><path d="M818.4 722.8s-36-79-48.2-193c-15.4-144.8-63.4-320.2-258.2-320.2V724l306.4-1.2z" fill="#F7C872" p-id="28581"></path><path d="M448 314.4s-188.8-14-125 132.4c-62-65.2-123.2-47.2-157.2-8.4s-30.8 38.2 3.2-13.2 56-100.2 1.2-155.8c17.2 12 177 51.2 146.4-96.2C383 229.6 468 164 468 164s-82.6 76-20 150.4z m-34.4-93.2c-0.6-0.6-1.6-0.6-2.2 0-4.6 4.6-9.2 9.2-14 13.8l-170.2 143.6c-10.2 7.4-16 11.6-16.2 11.8-0.6 0.4-0.8 1.4-0.4 2.2 0.4 0.6 1.4 0.8 2 0.4 1-0.8 105.2-73.6 200.8-169.4 0.8-0.8 0.8-1.8 0.2-2.4z" fill="#FB8A5D" p-id="28582"></path><path d="M770.4 278c-40.2-38-69.4-76.4-34.8-136.2-12 14-139.6 80.8-145.6-54.6-21 29.8-51.6 36.4-78 35.2v46.4c7 17.4 9 38 0 61.6v6.4c22.2-6.2 152.6-37.8 132 91.6 38.6-69.6 94.6-66.2 132-39.2s34.6 27-5.6-11.2z m-41.8-17.6c-0.2 0.8-1 1-1.8 0.8-1-0.4-106.2-43.4-209-108.2-0.6-0.4-0.8-1.4-0.4-2s1.4-0.8 2-0.4c5.4 3.4 10.6 6.8 16 10l174.8 90.4c11 4.8 17.6 7.4 17.8 7.6 0.8 0.4 1 1.2 0.6 1.8z" fill="#EA6D4B" p-id="28583"></path></svg>
