<svg t="1680935528040" class="icon" viewBox="0 0 1024 1024" version="1.1" xmlns="http://www.w3.org/2000/svg" p-id="6085" width="200" height="200"><path d="M471.466667 590.933333c8.533333-8.533333 6.4-21.333333 0-29.866666-8.533333-8.533333-21.333333-8.533333-29.866667 0L87.466667 910.933333s-2.133333 0-2.133334 2.133334V580.266667c0-12.8-8.533333-21.333333-21.333333-21.333334s-21.333333 8.533333-21.333333 21.333334V981.333333h407.466666c12.8 0 21.333333-8.533333 21.333334-21.333333s-8.533333-21.333333-21.333334-21.333333H117.333333s0 2.133333 2.133334 0l352-347.733334zM578.133333 42.666667c-12.8 0-21.333333 8.533333-21.333333 21.333333s8.533333 21.333333 21.333333 21.333333h332.8s0 2.133333-2.133333 4.266667L558.933333 441.6c-8.533333 8.533333-6.4 21.333333 0 29.866667 8.533333 8.533333 21.333333 8.533333 29.866667 2.133333L938.666667 121.6v-2.133333 332.8c0 12.8 8.533333 21.333333 21.333333 21.333333s21.333333-8.533333 21.333333-21.333333V42.666667H578.133333z" p-id="6086"></path></svg>
