<svg t="1679928073370" class="icon" viewBox="0 0 1024 1024" version="1.1" xmlns="http://www.w3.org/2000/svg" p-id="2612" width="200" height="200"><path d="M53.888 205.44h754.56v646.784H53.888z" fill="#E5EFFF" p-id="2613"></path><path d="M819.2 512a51.2 51.2 0 0 1 51.2 51.2v250.304a51.2 51.2 0 0 1-51.2 51.2H390.976l-144.32 144.32A51.136 51.136 0 0 1 159.36 972.8v-108.096H51.2a51.2 51.2 0 0 1-51.2-51.2V204.8a51.2 51.2 0 0 1 51.2-51.2h409.6a51.2 51.2 0 1 1 0 102.4H102.4v506.304h108.096a51.2 51.2 0 0 1 51.2 51.2v35.712l71.872-71.872a51.2 51.2 0 0 1 36.224-15.04H768V563.2a51.2 51.2 0 0 1 51.2-51.2z m0-256a51.2 51.2 0 0 1-36.224-87.424l102.4-102.4a51.2 51.2 0 1 1 72.448 72.448l-102.4 102.4A51.072 51.072 0 0 1 819.2 256z m153.6 51.2a51.2 51.2 0 1 1 0 102.4h-102.4a51.2 51.2 0 1 1 0-102.4h102.4z m-307.2-102.4a51.2 51.2 0 0 1-51.2-51.2V51.2a51.2 51.2 0 1 1 102.4 0v102.4a51.2 51.2 0 0 1-51.2 51.2zM204.8 409.6a51.2 51.2 0 0 1 51.2-51.2h358.4a51.2 51.2 0 1 1 0 102.4H256a51.2 51.2 0 0 1-51.2-51.2z m409.6 153.6a51.2 51.2 0 1 1 0 102.4H256a51.2 51.2 0 1 1 0-102.4h358.4z"  p-id="2614"></path></svg>
