<svg t="1680088852413" class="icon" viewBox="0 0 1024 1024" version="1.1" xmlns="http://www.w3.org/2000/svg" p-id="1364" width="200" height="200"><path d="M469.096997 689.092166l-67.723626-409.412353V0h224.878264v279.679813l-66.316272 409.412353h-90.838366zM512.341177 1023.530882c-46.101537 0-79.280996-10.576486-99.453084-31.729458-19.191204-21.110324-28.829453-47.082421-28.829453-77.830994v-34.586814c0-30.748574 9.595602-56.72067 28.829453-77.873641 20.172088-21.110324 53.3089-31.68681 99.453084-31.686811 46.144184 0 78.811878 10.576486 98.045729 31.686811 20.172088 21.152972 30.279455 47.125068 30.279455 77.873641v34.586814c0 30.748574-10.107367 56.72067-30.279455 77.830994-19.191204 21.152972-51.901545 31.729457-98.045729 31.729458z"  p-id="1365"></path></svg>
