<svg t="1680362968324" class="icon" viewBox="0 0 1024 1024" version="1.1" xmlns="http://www.w3.org/2000/svg" p-id="3503" width="200" height="200"><path d="M739.555556 170.666667c62.862222 0 113.777778 44.032 113.777777 98.417777v485.831112c0 54.385778-50.915556 98.417778-113.777777 98.417777H284.444444c-62.862222 0-113.777778-44.032-113.777777-98.417777V269.084444C170.666667 214.698667 221.582222 170.666667 284.444444 170.666667h455.111112zM554.666667 476.16H362.666667a32.142222 32.142222 0 0 0-32.028445 32.256c0 17.806222 14.336 32.312889 32.028445 32.312889H554.666667c17.635556 0 32.028444-14.506667 32.028444-32.312889a32.142222 32.142222 0 0 0-32.028444-32.312889z m78.222222-136.362667h-270.222222a32.142222 32.142222 0 0 0-32.028445 32.312889c0 17.806222 14.336 32.256 32.028445 32.256h270.222222c17.635556 0 32.028444-14.449778 32.028444-32.256a32.142222 32.142222 0 0 0-32.028444-32.312889z" fill="#1296db" p-id="3504"></path></svg>
