<svg t="1681376065155" class="icon" viewBox="0 0 1024 1024" version="1.1" xmlns="http://www.w3.org/2000/svg" p-id="2905" width="128" height="128"><path d="M887.04 618.24A324.48 324.48 0 0 0 896 544a347.52 347.52 0 0 0-192-305.28 192 192 0 0 0-384 0A347.52 347.52 0 0 0 128 544a324.48 324.48 0 0 0 8.96 74.24 192 192 0 1 0 272 264.32 408.96 408.96 0 0 0 206.08 0 192 192 0 1 0 272-264.32zM512 832a352 352 0 0 1-72.96-8.32A192 192 0 0 0 448 768a192 192 0 0 0-192-192 192 192 0 0 0-59.52 10.24A256 256 0 0 1 192 544a280.32 280.32 0 0 1 136.32-235.52 192 192 0 0 0 367.36 0A280.32 280.32 0 0 1 832 544a256 256 0 0 1-4.48 42.24A192 192 0 0 0 768 576a192 192 0 0 0-192 192 192 192 0 0 0 8.96 55.68A352 352 0 0 1 512 832z" p-id="2906"></path></svg>
