<svg t="1679316377594" class="icon" viewBox="0 0 1210 1024" version="1.1" xmlns="http://www.w3.org/2000/svg" p-id="11020" width="200" height="200"><path d="M186.181818 0h837.818182a186.181818 186.181818 0 0 1 186.181818 186.181818v651.636364a186.181818 186.181818 0 0 1-186.181818 186.181818H186.181818a186.181818 186.181818 0 0 1-186.181818-186.181818V186.181818a186.181818 186.181818 0 0 1 186.181818-186.181818z m93.090909 386.466909l335.499637-0.279273a37.236364 37.236364 0 0 0-0.093091-74.472727L279.272727 311.994182a37.236364 37.236364 0 1 0 0.093091 74.472727z m0 186.181818l335.499637-0.279272a37.236364 37.236364 0 0 0-0.093091-74.472728L279.272727 498.176a37.236364 37.236364 0 1 0 0.093091 74.472727z m0 186.181818l335.499637-0.279272a37.236364 37.236364 0 0 0-0.093091-74.472728L279.272727 684.357818a37.236364 37.236364 0 1 0 0.093091 74.472727z m663.691637-79.639272l-2.606546-299.287273-153.460363-1.768727 0.186181 305.710545 7.819637 10.752 144.616727-11.357091 3.444364-4.049454z m-2.932364-351.976728l-0.930909-106.402909-17.873455-24.808727-112.965818 0.232727-21.504 23.877819 0.046546 111.104 153.227636-4.00291zM875.985455 822.458182l37.515636-94.394182-98.071273 9.588364 31.325091 75.962181 17.966546 31.557819 11.264-22.667637z" p-id="11021"></path></svg>
