<svg t="1679322884584" class="icon" viewBox="0 0 1280 1024" version="1.1" xmlns="http://www.w3.org/2000/svg" p-id="26053" width="200" height="200"><path d="M1177.4208 0A102.5792 102.5792 0 0 1 1280 102.4v819.2c0 56.576-45.9264 102.4-102.5792 102.4H102.5792A102.5792 102.5792 0 0 1 0 921.6V102.4c0-56.576 45.9264-102.4 102.5792-102.4h1074.8416z m-25.344 102.4H127.9232A25.4208 25.4208 0 0 0 102.4 127.8208v768.3584a25.6 25.6 0 0 0 25.5232 25.4208h1024.1536a25.4208 25.4208 0 0 0 25.5232-25.4208V127.8208A25.6 25.6 0 0 0 1152.0768 102.4zM870.4 281.6a102.4 102.4 0 0 1 77.0304 169.8816C1007.8464 478.7712 1049.6 538.8544 1049.6 617.8304v47.7184c0 14.1824-11.52 25.6512-25.7792 25.6512H716.9792A25.7024 25.7024 0 0 1 691.2 665.5488v-47.7184c0-78.9504 41.8304-139.008 102.1952-166.3744A102.4 102.4 0 0 1 870.4 281.6zM511.8464 563.2c27.0848 0 49.2544 20.7104 51.2 47.36L563.2 614.4c0 28.288-22.9632 51.2-51.3536 51.2h-255.6928A51.1488 51.1488 0 0 1 204.8 614.4c0-28.288 22.9632-51.2 51.3536-51.2h255.6928z m0-204.8c27.0848 0 49.2544 20.7104 51.2 47.36L563.2 409.6c0 28.288-22.9632 51.2-51.3536 51.2h-255.6928A51.1488 51.1488 0 0 1 204.8 409.6c0-28.288 22.9632-51.2 51.3536-51.2h255.6928z" fill="#fff" p-id="26054"></path></svg>
