<svg t="1679316255922" class="icon" viewBox="0 0 1024 1024" version="1.1" xmlns="http://www.w3.org/2000/svg" p-id="9549" width="200" height="200"><path d="M385.0752 502.9888h75.8272l23.808-71.9872h-75.776z" fill="#1296db" p-id="9550"></path><path d="M428.032 118.7328C239.7184 122.6752 86.3232 276.48 82.7392 464.7936c-1.792 94.72 33.7408 181.0944 92.8768 245.504a16.99328 16.99328 0 0 1 0.5632 22.3744l-41.0112 49.3056c-14.08 16.9472-2.048 42.5984 19.968 42.5984h275.7632c193.8432 0 355.1232-154.3168 357.6832-348.16 2.6624-199.68-160.512-361.9328-360.5504-357.6832z m150.272 384.256c14.1312 0 25.6 11.4688 25.6 25.6s-11.4688 25.6-25.6 25.6H497.8688l-25.2928 76.3392a25.6512 25.6512 0 0 1-32.3584 16.2816 25.67168 25.67168 0 0 1-16.2816-32.3584l19.968-60.2624H368.128l-12.4416 37.632a25.6512 25.6512 0 0 1-32.3584 16.2816 25.67168 25.67168 0 0 1-16.2816-32.3584l7.1168-21.5552h-22.6816c-14.1312 0-25.6-11.4688-25.6-25.6s11.4688-25.6 25.6-25.6h39.6288l23.808-71.9872h-63.488c-14.1312 0-25.6-11.4688-25.6-25.6s11.4688-25.6 25.6-25.6h80.4352l25.2928-76.3392c4.4544-13.4144 18.944-20.6848 32.3584-16.2816 13.4144 4.4544 20.6848 18.944 16.2816 32.3584l-19.968 60.2624h75.776l12.4416-37.632c4.4544-13.4144 18.944-20.6848 32.3584-16.2816 13.4144 4.4544 20.6848 18.944 16.2816 32.3584l-7.1168 21.5552h22.6816c14.1312 0 25.6 11.4688 25.6 25.6s-11.4688 25.6-25.6 25.6h-39.6288l-23.808 71.9872h63.488z" fill="#1296db" p-id="9551"></path><path d="M871.2192 826.7264c45.3632-48.2304 72.6016-113.7664 70.5536-185.6512-2.304-81.7664-43.2128-154.7264-105.0624-201.0112 4.9152 119.3472-25.4976 341.4016-300.544 423.9872 37.2224 25.2416 81.2032 41.1136 128.4608 44.1344 56.0128 3.584 108.544-10.5984 152.5248-37.4272l51.7632 21.1456c14.5408 5.9392 28.8768-9.0624 22.1184-23.296-6.144-12.8512-13.056-27.4944-19.8144-41.8816z" fill="#1296db" p-id="9552"></path><path d="M899.9424 507.7504a263.68 263.68 0 0 0-63.2832-67.6864c4.9152 119.3472-25.4976 341.4016-300.544 423.9872 0.6144 0.4096 1.2288 0.8192 1.8944 1.2288 180.1216-42.9568 317.9008-183.3984 361.9328-357.5296z" fill="#1296db" p-id="9553"></path><path d="M135.168 781.9776c-0.6144 0.768-1.1264 1.536-1.6896 2.3552 20.6336 15.0528 42.4448 28.5184 65.2288 40.2432h232.192c193.8432 0 355.1232-154.3168 357.6832-348.16 2.6624-199.68-160.512-361.8816-360.5504-357.6832-188.3136 3.9424-341.7088 157.7472-345.2928 346.0608-1.792 94.72 33.7408 181.0944 92.8768 245.504a16.99328 16.99328 0 0 1 0.5632 22.3744l-41.0112 49.3056z m156.3136-350.976c-14.1312 0-25.6-11.4688-25.6-25.6s11.4688-25.6 25.6-25.6h80.4352l25.2928-76.3392c4.4544-13.4144 18.944-20.6848 32.3584-16.2816 13.4144 4.4544 20.6848 18.944 16.2816 32.3584l-19.968 60.2624h75.776l12.4416-37.632c4.4544-13.4144 18.944-20.6848 32.3584-16.2816 13.4144 4.4544 20.6848 18.944 16.2816 32.3584l-7.1168 21.5552h22.6816c14.1312 0 25.6 11.4688 25.6 25.6s-11.4688 25.6-25.6 25.6h-39.6288l-23.808 71.9872h63.488c14.1312 0 25.6 11.4688 25.6 25.6s-11.4688 25.6-25.6 25.6H497.8688l-25.2928 76.3392a25.6512 25.6512 0 0 1-32.3584 16.2816 25.67168 25.67168 0 0 1-16.2816-32.3584l19.968-60.2624H368.128l-12.4416 37.632a25.6512 25.6512 0 0 1-32.3584 16.2816 25.67168 25.67168 0 0 1-16.2816-32.3584l7.1168-21.5552h-22.6816c-14.1312 0-25.6-11.4688-25.6-25.6s11.4688-25.6 25.6-25.6h39.6288l23.808-71.9872H291.4816z" fill="#1296db" p-id="9554"></path><path d="M779.776 393.1648c-36.1984-159.5392-180.3776-278.0672-351.6928-274.432-188.3136 3.9424-341.7088 157.7472-345.2928 346.0608-1.536 79.9232 23.6544 153.9072 67.072 213.76 68.9152 25.6 144.5888 36.096 222.6176 27.8016 190.0032-20.1728 343.2448-146.176 407.296-313.1904z m-201.472 109.824c14.1312 0 25.6 11.4688 25.6 25.6s-11.4688 25.6-25.6 25.6H497.8688l-25.2928 76.3392a25.6512 25.6512 0 0 1-32.3584 16.2816 25.67168 25.67168 0 0 1-16.2816-32.3584l19.968-60.2624H368.128l-12.4416 37.632a25.6512 25.6512 0 0 1-32.3584 16.2816 25.67168 25.67168 0 0 1-16.2816-32.3584l7.1168-21.5552h-22.6816c-14.1312 0-25.6-11.4688-25.6-25.6s11.4688-25.6 25.6-25.6h39.6288l23.808-71.9872h-63.488c-14.1312 0-25.6-11.4688-25.6-25.6s11.4688-25.6 25.6-25.6h80.4352l25.2928-76.3392c4.4544-13.4144 18.944-20.6848 32.3584-16.2816 13.4144 4.4544 20.6848 18.944 16.2816 32.3584l-19.968 60.2624h75.776l12.4416-37.632c4.4544-13.4144 18.944-20.6848 32.3584-16.2816 13.4144 4.4544 20.6848 18.944 16.2816 32.3584l-7.1168 21.5552h22.6816c14.1312 0 25.6 11.4688 25.6 25.6s-11.4688 25.6-25.6 25.6h-39.6288l-23.808 71.9872h63.488z" fill="#1296db" p-id="9555"></path><path d="M484.7104 431.0016h-75.776l-23.808 71.9872h29.5424a489.1648 489.1648 0 0 0 57.1904-32.9728l12.8512-39.0144z" fill="#1296db" p-id="9556"></path><path d="M428.032 118.7328C239.7184 122.6752 86.3232 276.48 82.7392 464.7936c-0.512 26.0096 1.9456 51.4048 6.8096 75.8784a490.11712 490.11712 0 0 0 161.024 9.4208c7.8336-0.8192 15.5648-1.8432 23.2448-3.0208a25.38496 25.38496 0 0 1-7.8848-18.432c0-14.1312 11.4688-25.6 25.6-25.6h39.6288l23.808-71.9872h-63.488c-14.1312 0-25.6-11.4688-25.6-25.6s11.4688-25.6 25.6-25.6h80.4352l25.2928-76.3392c4.4544-13.4144 18.944-20.6848 32.3584-16.2816 13.4144 4.4544 20.6848 18.944 16.2816 32.3584l-19.968 60.2624h75.776l12.4416-37.632c4.4544-13.4144 18.944-20.6848 32.3584-16.2816 13.4144 4.4544 20.6848 18.944 16.2816 32.3584l-7.1168 21.5552h17.4592a491.9808 491.9808 0 0 0 95.3856-173.4656c-63.9488-56.1664-148.224-89.6-240.4352-87.6544z" fill="#1296db" p-id="9557"></path><path d="M93.0816 386.9696c21.0432 0.768 42.3936 0.0512 63.8976-2.2016 162.2528-17.2032 295.0656-118.9888 359.2704-256.8192a353.29536 353.29536 0 0 0-88.2688-9.216c-161.4848 3.3792-297.2672 117.0944-334.8992 268.2368z" p-id="9558"></path></svg>
