<svg t="1679323188723" class="icon" viewBox="0 0 1024 1024" version="1.1" xmlns="http://www.w3.org/2000/svg" p-id="29209" width="200" height="200"><path d="M558.4 602.432c88.128-49.28 148.288-142.336 148.288-250.368a288 288 0 1 0-576-0.064c0 107.2 59.328 199.616 146.24 249.216C115.84 653.824 0 794.56 0 960h64c0-174.848 157.888-317.12 351.936-317.12C610.048 642.88 768 785.152 768 960h64c0-164.224-114.24-304.128-273.6-357.568zM194.688 352c0-123.52 100.48-224 223.936-224s224.064 100.48 224.064 224S542.208 576 418.624 576a224.256 224.256 0 0 1-223.936-224zM1024 768h-64a254.848 254.848 0 0 0-233.6-253.952 354.56 354.56 0 0 0 30.848-77.312 127.936 127.936 0 0 0-22.016-240.384 350.08 350.08 0 0 0-42.944-67.136c3.968-0.256 7.68-1.216 11.712-1.216 105.856 0 192 86.144 192 192 0 61.12-28.672 115.584-73.28 150.784A320.64 320.64 0 0 1 1024 768z" fill="#ffffff" p-id="29210"></path></svg>
