<svg t="1679841259204" class="icon" viewBox="0 0 1024 1024" version="1.1" xmlns="http://www.w3.org/2000/svg" p-id="1032" width="200" height="200"><path d="M332.256 162.432a31.87 31.87 0 0 0-34.88 6.944l-192 192c-12.512 12.512-12.512 32.736 0 45.248s32.736 12.512 45.248 0L288 269.248V800c0 17.696 14.336 32 32 32s32-14.304 32-32V192c0-12.928-7.808-24.608-19.744-29.568zM918.624 617.376c-12.512-12.512-32.736-12.512-45.248 0L768 722.752V192c0-17.664-14.304-32-32-32s-32 14.336-32 32v608c0 12.928 7.776 24.64 19.744 29.568C727.712 831.232 731.872 832 736 832a32.01 32.01 0 0 0 22.624-9.376l160-160c12.512-12.512 12.512-32.736 0-45.248z" p-id="1033"></path></svg>
