<svg t="1678597489998" class="icon" viewBox="0 0 1024 1024" version="1.1" xmlns="http://www.w3.org/2000/svg" p-id="11979" width="200" height="200"><path d="M821.033086 399.638123v-84.296691a309.020444 309.020444 0 0 0-618.040888 0v84.271408A112.715852 112.715852 0 0 0 90.605037 512v393.317136a112.715852 112.715852 0 0 0 112.387161 112.361876h618.040888a112.715852 112.715852 0 0 0 112.361877-112.361876V512a112.715852 112.715852 0 0 0-112.361877-112.361877zM259.173136 315.341432a255.367901 255.367901 0 0 1 252.839506-252.839506 251.77758 251.77758 0 0 1 252.839506 252.839506v84.271408h-505.679012z m618.040889 589.95042a53.096296 53.096296 0 0 1-56.180939 56.180938H202.992198a53.096296 53.096296 0 0 1-56.180939-56.180938V512a53.096296 53.096296 0 0 1 56.180939-56.180938h618.040888a53.096296 53.096296 0 0 1 56.180939 56.180938v393.317136zM512.012642 512a139.061728 139.061728 0 0 0-28.090469 275.316938v89.909729a28.090469 28.090469 0 0 0 56.180938 0v-89.909729a139.061728 139.061728 0 0 0-28.090469-275.316938z m0 224.749037a84.271407 84.271407 0 1 1 84.271407-84.271407 86.420543 86.420543 0 0 1-84.271407 84.271407z" p-id="11980" fill="#8a8a8a"></path></svg>
