<svg t="1679756909245" class="icon" viewBox="0 0 1024 1024" version="1.1" xmlns="http://www.w3.org/2000/svg" p-id="1616" width="200" height="200"><path d="M845.132283 271.314747c-8.281212 0-16.535273-3.369374-22.511192-10.012444-11.225212-12.43798-10.252929-31.612121 2.18505-42.864485l30.819556-27.787636c12.410828-11.226505 31.583677-10.254222 42.837333 2.212202 11.225212 12.43798 10.252929 31.612121-2.18505 42.864485l-30.819556 27.760485a30.17697 30.17697 0 0 1-20.326141 7.827393z m0 0M178.366061 271.314747a30.211879 30.211879 0 0 1-20.293819-7.800242L127.247515 235.699717c-12.43798-11.223919-13.405091-30.398061-2.212202-42.864485 11.191596-12.470303 30.365737-13.441293 42.864485-2.217373l30.824727 27.788929c12.43798 11.223919 13.405091 30.398061 2.212202 42.863192a30.319192 30.319192 0 0 1-22.570666 10.044767z m0 0" p-id="1617" fill="#707070"></path><path d="M511.734949 149.665616c-16.74602 0-30.337293-13.591273-30.337292-30.338586v-30.332121c0-16.748606 13.591273-30.338586 30.337292-30.338586 16.743434 0 30.334707 13.58998 30.334708 30.338586v30.332121c0 16.748606-13.591273 30.338586-30.334708 30.338586z m0 0M511.734949 170.232242c-167.276606 0-303.363879 136.092444-303.363878 303.363879 0 105.267717 65.069253 177.410586 67.801212 180.408889 28.515556 31.098828 53.544081 95.407838 53.544081 137.57802v52.783839c0 66.92202 54.423273 121.347879 121.344 121.347878h121.349171c66.920727 0 121.344-54.427152 121.344-121.347878V791.58303c0-42.229657 24.996202-106.512808 53.542788-137.57802 2.764283-3.030626 67.805091-75.168323 67.805091-180.408889-0.001293-167.271434-136.093737-303.363879-303.366465-303.363879z m60.673293 677.173011h-121.349171c-16.743434 0-30.332121-13.564121-30.332122-30.339879 0-16.774465 13.58998-30.338586 30.332122-30.338586h121.349171c16.775758 0 30.333414 13.564121 30.333415 30.338586 0 16.775758-13.558949 30.339879-30.333415 30.339879z m70.257778-274.610425a30.248081 30.248081 0 0 1-9.585778 1.578667c-12.710788 0-24.542384-8.040727-28.759919-20.747636l-14.831192-44.443152-56.274747 56.301899c-11.863919 11.858747-31.036768 11.858747-42.896808 0l-56.307071-56.301899-14.80404 44.443152c-5.308768 15.864242-22.445253 24.538505-38.372849 19.168969-15.896566-5.277737-24.484202-22.445253-19.174141-38.375434l30.337293-91.009293a30.381253 30.381253 0 0 1 21.81301-19.929212c10.192162-2.430707 20.990707 0.633535 28.421171 8.069172l69.502708 69.591919 69.560888-69.564768c7.40202-7.429172 18.173414-10.466263 28.425051-8.066586a30.328242 30.328242 0 0 1 21.811717 19.931798l30.334707 91.010586c5.282909 15.896566-3.304727 33.064081-19.2 38.341818z m0 0" p-id="1618" ></path></svg>
