<svg t="1680062185997" class="icon" viewBox="0 0 1117 1024" version="1.1" xmlns="http://www.w3.org/2000/svg" p-id="2777" width="200" height="200"><path d="M558.689698 62.253995a124.50799 124.50799 0 1 1-124.50799 123.709862A124.50799 124.50799 0 0 1 558.689698 62.253995M558.689698 0a185.963857 185.963857 0 1 0 185.963857 185.963857A186.761985 186.761985 0 0 0 558.689698 0zM931.415539 683.197688a124.50799 124.50799 0 1 1-124.507989 124.50799 124.50799 124.50799 0 0 1 124.507989-124.50799m0-62.253995A185.963857 185.963857 0 1 0 1117.379396 806.90755a186.761985 186.761985 0 0 0-185.963857-185.963857zM185.963857 683.197688a124.50799 124.50799 0 1 1-123.709862 123.709862 124.50799 124.50799 0 0 1 123.709862-123.709862m0-62.253995a185.963857 185.963857 0 1 0 185.963856 185.963857 186.761985 186.761985 0 0 0-185.963856-185.963857z" fill="" p-id="2778"></path><path d="M159.625628 664.840741v-41.502664-33.521381a434.979836 434.979836 0 0 1 259.391646-399.064071l24.741972 56.667098a372.725841 372.725841 0 0 0-226.668392 342.396973v28.732613c0 9.577538 0 23.943844 4.788769 35.915766zM589.816696 1023.998404a433.38358 433.38358 0 0 1-292.1149-113.334196l41.502664-45.493304a379.908995 379.908995 0 0 0 472.491858 23.943844l36.713895 49.483945a430.989196 430.989196 0 0 1-258.593517 85.399711zM1023.998404 668.831381h-62.253995v-79.812814a371.129585 371.129585 0 0 0-285.729874-361.552047l14.366306-60.657739a432.585452 432.585452 0 0 1 334.415691 423.007915c-0.798128 4.788769-0.798128 73.427789-0.798128 79.014685zM534.745854 676.812663V478.876884h47.887688v120.517349l125.306118-62.253995 20.751332 43.09892L534.745854 676.812663z" p-id="2779"></path></svg>
