<svg t="1680059448046" class="icon" viewBox="0 0 1024 1024" version="1.1" xmlns="http://www.w3.org/2000/svg" p-id="1354" width="200" height="200"><path d="M356.333899 633.278061c0 85.308768 69.15103 154.461091 154.458505 154.461091 85.308768 0 154.46497-69.15103 154.46497-154.461091 0-85.306182-69.156202-154.46497-154.46497-154.46497-85.307475 0-154.458505 69.157495-154.458505 154.46497z m0 0" p-id="1355"></path><path d="M735.868121 359.656727L815.303111 202.989899c2.20703-2.20703 2.20703-6.621091 2.20703-8.828121V61.768404c0-6.621091-2.20703-11.035152-6.62109-15.445333C806.480162 37.494949 806.480162 37.494949 497.555394 37.494949H199.661899c-6.615919 0-11.02998 2.20703-15.445333 6.621091-4.414061 4.415354-6.621091 8.824242-6.621091 15.445334v132.393373c0 4.414061 0 6.621091 2.20703 8.828122l88.263111 176.530101C199.661899 441.303919 157.737374 531.772768 157.737374 633.278061c0 194.182465 158.873859 353.056323 353.05503 353.056323 194.182465 0 353.056323-158.873859 353.056323-353.056323 0-110.333414-50.752646-207.419475-127.980606-273.621334zM618.913616 103.692929c0-13.238303 8.828121-22.066424 22.070303-22.066424 13.23701 0 22.065131 8.828121 22.065132 22.066424v196.388202c0 13.23701-8.828121 22.066424-22.065132 22.066425-13.242182 0-22.070303-8.829414-22.070303-22.066425V103.692929z m-286.853172-2.20703c0-13.238303 8.822949-22.066424 22.066425-22.066424 13.23701 0 22.065131 8.828121 22.065131 22.066424v198.595232c0 13.23701-8.828121 22.066424-22.065131 22.066425-13.243475 0-22.066424-8.829414-22.066425-22.066425V101.485899z m178.73196 730.383515c-110.328242 0-198.595232-88.264404-198.595232-198.592646 0-110.333414 88.26699-198.595232 198.595232-198.595233 110.329535 0 198.596525 88.261818 198.596525 198.595233 0 110.329535-88.268283 198.592646-198.596525 198.592646z m0 0" p-id="1356"></path></svg>
