<svg t="1680867892436" class="icon" viewBox="0 0 1024 1024" version="1.1" xmlns="http://www.w3.org/2000/svg" p-id="2494" width="200" height="200"><path d="M981.333333 298.666667 981.333333 298.666667 981.333333 298.666667c0-12.8-4.266667-21.333333-12.8-29.866667l-260.266667-260.266667C699.733333 4.266667 691.2 0 682.666667 0l0 0 0 0c0 0-4.266667 0-4.266667 0L213.333333 0C119.466667 0 42.666667 76.8 42.666667 170.666667l0 682.666667c0 93.866667 76.8 170.666667 170.666667 170.666667l597.333333 0c93.866667 0 170.666667-76.8 170.666667-170.666667L981.333333 298.666667C981.333333 298.666667 981.333333 298.666667 981.333333 298.666667zM883.2 298.666667 853.333333 298.666667c-93.866667 0-170.666667-76.8-170.666667-170.666667L682.666667 102.4 883.2 298.666667zM896 853.333333c0 46.933333-38.4 85.333333-85.333333 85.333333L213.333333 938.666667c-46.933333 0-85.333333-38.4-85.333333-85.333333L128 170.666667c0-46.933333 38.4-85.333333 85.333333-85.333333l384 0 0 42.666667c0 140.8 115.2 256 256 256l42.666667 0L896 853.333333z" p-id="2495"></path><path d="M682.666667 426.666667 341.333333 426.666667c-25.6 0-42.666667 17.066667-42.666667 42.666667s17.066667 42.666667 42.666667 42.666667l341.333333 0c25.6 0 42.666667-17.066667 42.666667-42.666667S708.266667 426.666667 682.666667 426.666667z" p-id="2496"></path><path d="M682.666667 682.666667 341.333333 682.666667c-25.6 0-42.666667 17.066667-42.666667 42.666667s17.066667 42.666667 42.666667 42.666667l341.333333 0c25.6 0 42.666667-17.066667 42.666667-42.666667S708.266667 682.666667 682.666667 682.666667z" p-id="2497"></path></svg>
