<svg t="1680870269993" class="icon" viewBox="0 0 1024 1024" version="1.1" xmlns="http://www.w3.org/2000/svg" p-id="3508" width="200" height="200"><path d="M507.904 557.568c32.768-35.328 52.736-82.432 52.736-134.144 0-108.032-88.064-196.096-196.096-196.096S168.448 315.904 168.448 423.936c0 51.712 20.48 99.328 53.248 134.144-20.992 12.288-40.448 27.136-58.368 45.056-53.76 53.76-83.456 125.44-83.456 201.728 0 46.08 11.264 78.848 34.816 100.352 37.376 33.792 93.184 28.16 157.696 21.504 29.696-3.072 60.416-6.144 92.672-6.144s62.976 3.072 92.672 6.144c25.088 2.56 49.152 5.12 71.168 5.12 34.304 0 64-6.144 86.528-26.624 23.552-20.992 34.816-53.76 34.816-100.352 0-76.288-29.696-147.456-83.456-201.728-17.92-17.92-37.376-33.28-58.88-45.568zM364.544 291.84C437.248 291.84 496.64 351.232 496.64 423.936c0 72.704-59.392 132.096-132.096 132.096S232.448 496.64 232.448 423.936C232.448 351.232 291.84 291.84 364.544 291.84z m208.384 565.248c-16.384 14.848-60.928 10.24-108.544 5.632-29.696-3.072-63.488-6.656-98.816-6.656s-69.12 3.584-98.816 6.656c-47.104 4.608-92.16 9.216-108.544-5.632-9.216-8.192-13.824-25.6-13.824-52.736 0-91.648 56.32-170.496 135.68-203.776 25.6 12.288 54.272 19.456 84.992 19.456 33.28 0 64.512-8.192 91.648-23.04-1.024 1.536-2.048 3.072-3.584 4.608 78.336 33.792 133.632 112.128 133.632 202.752-0.512 27.136-5.12 44.544-13.824 52.736z m285.696-390.144c-17.92-17.92-37.376-32.768-58.88-45.056 33.28-35.84 53.248-83.456 52.736-136.192-0.512-23.04-4.608-45.056-12.288-65.536v-0.512c-0.512-0.512-0.512-1.536-1.024-2.048-28.16-73.216-98.816-125.952-181.76-126.464-68.608-0.512-129.536 34.304-164.864 87.552-14.336 21.504 1.024 49.664 26.624 49.664 10.752 0 20.48-5.12 26.624-14.336 5.12-7.68 10.752-14.848 17.408-20.992 1.536-1.024 3.584-2.048 5.12-3.584 24.064-21.504 55.808-34.304 90.624-33.28 56.832 1.024 104.96 38.4 122.368 89.6 4.608 14.336 7.168 29.696 6.656 45.056-1.536 67.584-54.784 123.392-122.368 128.512-3.072 0-6.144 0.512-9.728 0.512-2.048 0-4.096 0-6.144 0.512-14.848 0-27.648 10.752-30.72 25.088v0.512c-4.096 18.944 10.24 37.376 29.696 37.888h7.68c30.72 0 59.904-7.168 85.504-19.456 78.336 33.792 136.192 113.664 136.192 204.288 0 26.624-4.608 44.544-13.824 52.736-16.384 14.848-60.928 10.24-108.544 5.632-9.216-1.024-28.672-2.56-29.184-2.56-17.408 0.512-31.232 14.336-31.232 31.744 0 17.408 13.824 31.744 31.232 31.744 0 0 15.36 1.536 22.528 2.56 25.088 2.56 49.152 5.12 71.168 5.12 34.304 0 64-6.144 86.528-26.624 23.552-20.992 34.816-53.76 34.816-100.352 0.512-76.8-29.184-147.968-82.944-201.728z"  p-id="3509"></path></svg>
