<svg t="1679925587266" class="icon" viewBox="0 0 1024 1024" version="1.1" xmlns="http://www.w3.org/2000/svg" p-id="1033" width="200" height="200"><path d="M811.57 928.29H211.1c-57.04 0-103.49-46.42-103.49-103.49V368.65c0-57.07 46.45-103.49 103.49-103.49h600.47c57.04 0 103.49 46.42 103.49 103.49V824.8c0 57.07-46.45 103.49-103.49 103.49zM211.1 325.75c-23.67 0-42.9 19.23-42.9 42.9V824.8c0 23.67 19.23 42.9 42.9 42.9h600.47c23.67 0 42.9-19.23 42.9-42.9V368.65c0-23.67-19.23-42.9-42.9-42.9H211.1z" p-id="1034"></path><path d="M720.98 325.75H301.75V193.83c0-52.75 42.9-95.68 95.68-95.68h227.81c52.78 0 95.74 42.93 95.74 95.68v131.92z m-358.64-60.59h298.05v-71.33c0-19.35-15.74-35.09-35.15-35.09H397.43c-19.35 0-35.09 15.74-35.09 35.09v71.33zM126.69 444.56h769.33v43.47H126.69z" p-id="1035"></path></svg>
