<svg t="1679316569488" class="icon" viewBox="0 0 1024 1024" version="1.1" xmlns="http://www.w3.org/2000/svg" p-id="15351" width="200" height="200"><path d="M175.726 934.787v-316.26c0-189.18 153.404-342.612 342.774-342.612s342.775 153.433 342.775 342.612v316.26h117.012c24.3 0 44 19.7 44 44s-19.7 44-44 44H44.747c-24.301 0-44-19.7-44-44s19.699-44 44-44h130.98z m367.588-520.804L374.237 692.332h135.221l-33.855 208.762L644.68 622.745H509.457l33.856-208.762h0.001z m259.29-305.76c15.875 9.237 21.299 29.622 12.156 45.488l-60.778 105.636-57.464-33.238 60.78-105.636c9.04-15.865 29.333-21.287 45.106-12.25h0.2zM518.4 30c19.892 0 35.966 14.962 35.966 33.539v119.693h-71.931V63.439C482.434 44.963 498.508 30 518.4 30h-0.001z m-284.003 78.223c15.773-9.138 36.065-3.716 45.208 12.05 0 0 0 0.1 0.1 0.1l60.78 105.636-57.465 33.237-60.78-105.636c-9.14-15.866-3.716-36.15 12.156-45.387h0.001zM26.44 316.985c9.041-15.867 29.334-21.39 45.208-12.252 0 0 0.1 0 0.1 0.101l105.283 61.052-33.152 57.638L38.595 362.37c-15.872-9.137-21.298-29.522-12.155-45.387z m984.12 0c9.143 15.864 3.717 36.249-12.155 45.486L893.12 423.423l-33.152-57.637 105.283-61.053c15.773-9.137 36.065-3.715 45.208 12.05 0 0.1 0.1 0.1 0.1 0.2v0.002z" p-id="15352"></path></svg>
